<mxfile host="app.diagrams.net" modified="2021-05-02T12:27:15.999Z" agent="5.0 (Windows NT 10.0; Win64; x64) AppleWebKit/537.36 (KHTML, like Gecko) Chrome/90.0.4430.93 Safari/537.36" etag="n-PcUKoqwUxVG9Dp_ZRe" version="14.6.9" type="github">
  <diagram id="s2WzrmisC6cXGPodmTnR" name="Page-1">
    <mxGraphModel dx="1422" dy="762" grid="1" gridSize="10" guides="1" tooltips="1" connect="1" arrows="1" fold="1" page="1" pageScale="1" pageWidth="827" pageHeight="1169" math="0" shadow="0">
      <root>
        <mxCell id="0" />
        <mxCell id="1" parent="0" />
        <mxCell id="VUWlF9jJFZCkWnsIXzz0-1" value="时序数据引擎" style="rounded=1;whiteSpace=wrap;html=1;" vertex="1" parent="1">
          <mxGeometry x="330" y="480" width="120" height="60" as="geometry" />
        </mxCell>
        <mxCell id="VUWlF9jJFZCkWnsIXzz0-2" value="timescale" style="rounded=1;whiteSpace=wrap;html=1;" vertex="1" parent="1">
          <mxGeometry x="240" y="600" width="120" height="60" as="geometry" />
        </mxCell>
        <mxCell id="VUWlF9jJFZCkWnsIXzz0-3" value="cassandra" style="rounded=1;whiteSpace=wrap;html=1;" vertex="1" parent="1">
          <mxGeometry x="424" y="600" width="120" height="60" as="geometry" />
        </mxCell>
        <mxCell id="VUWlF9jJFZCkWnsIXzz0-4" value="标签引擎&lt;br&gt;图数据库&lt;br&gt;Gremlin" style="rounded=1;whiteSpace=wrap;html=1;" vertex="1" parent="1">
          <mxGeometry x="424" y="220" width="120" height="60" as="geometry" />
        </mxCell>
        <mxCell id="VUWlF9jJFZCkWnsIXzz0-5" value="" style="endArrow=classic;html=1;entryX=0.5;entryY=0;entryDx=0;entryDy=0;exitX=0.25;exitY=1;exitDx=0;exitDy=0;" edge="1" parent="1" source="VUWlF9jJFZCkWnsIXzz0-1" target="VUWlF9jJFZCkWnsIXzz0-2">
          <mxGeometry width="50" height="50" relative="1" as="geometry">
            <mxPoint x="220" y="570" as="sourcePoint" />
            <mxPoint x="270" y="580" as="targetPoint" />
          </mxGeometry>
        </mxCell>
        <mxCell id="VUWlF9jJFZCkWnsIXzz0-6" value="" style="endArrow=classic;html=1;exitX=0.75;exitY=1;exitDx=0;exitDy=0;entryX=0.567;entryY=-0.017;entryDx=0;entryDy=0;entryPerimeter=0;" edge="1" parent="1" source="VUWlF9jJFZCkWnsIXzz0-1" target="VUWlF9jJFZCkWnsIXzz0-3">
          <mxGeometry width="50" height="50" relative="1" as="geometry">
            <mxPoint x="330" y="630" as="sourcePoint" />
            <mxPoint x="450" y="610" as="targetPoint" />
          </mxGeometry>
        </mxCell>
        <mxCell id="VUWlF9jJFZCkWnsIXzz0-8" value="实时报表&lt;br&gt;&lt;br&gt;&amp;nbsp;dashboard&lt;br&gt;&lt;br&gt;性能数据归并&lt;br&gt;&lt;br&gt;多指标综合告警" style="rounded=1;whiteSpace=wrap;html=1;" vertex="1" parent="1">
          <mxGeometry x="650" y="130" width="120" height="470" as="geometry" />
        </mxCell>
        <mxCell id="VUWlF9jJFZCkWnsIXzz0-9" value="BTPM" style="rounded=1;whiteSpace=wrap;html=1;" vertex="1" parent="1">
          <mxGeometry x="330" y="50" width="120" height="60" as="geometry" />
        </mxCell>
        <mxCell id="VUWlF9jJFZCkWnsIXzz0-10" value="" style="endArrow=classic;html=1;exitX=0.75;exitY=1;exitDx=0;exitDy=0;entryX=0.5;entryY=0;entryDx=0;entryDy=0;" edge="1" parent="1" source="VUWlF9jJFZCkWnsIXzz0-9" target="VUWlF9jJFZCkWnsIXzz0-4">
          <mxGeometry width="50" height="50" relative="1" as="geometry">
            <mxPoint x="410" y="160" as="sourcePoint" />
            <mxPoint x="460" y="110" as="targetPoint" />
          </mxGeometry>
        </mxCell>
        <mxCell id="VUWlF9jJFZCkWnsIXzz0-11" value="MO模型" style="text;html=1;strokeColor=none;fillColor=none;align=center;verticalAlign=middle;whiteSpace=wrap;rounded=0;" vertex="1" parent="1">
          <mxGeometry x="460" y="150" width="66" height="20" as="geometry" />
        </mxCell>
        <mxCell id="VUWlF9jJFZCkWnsIXzz0-12" value="流处理引擎&lt;br&gt;kfaka stream" style="rounded=1;whiteSpace=wrap;html=1;" vertex="1" parent="1">
          <mxGeometry x="330" y="350" width="120" height="60" as="geometry" />
        </mxCell>
        <mxCell id="VUWlF9jJFZCkWnsIXzz0-13" value="kafka" style="rounded=1;whiteSpace=wrap;html=1;" vertex="1" parent="1">
          <mxGeometry x="240" y="220" width="120" height="60" as="geometry" />
        </mxCell>
        <mxCell id="VUWlF9jJFZCkWnsIXzz0-14" value="" style="endArrow=classic;html=1;exitX=0.317;exitY=1.017;exitDx=0;exitDy=0;exitPerimeter=0;entryX=0.5;entryY=0;entryDx=0;entryDy=0;" edge="1" parent="1" source="VUWlF9jJFZCkWnsIXzz0-9" target="VUWlF9jJFZCkWnsIXzz0-13">
          <mxGeometry width="50" height="50" relative="1" as="geometry">
            <mxPoint x="360" y="170" as="sourcePoint" />
            <mxPoint x="410" y="120" as="targetPoint" />
          </mxGeometry>
        </mxCell>
        <mxCell id="VUWlF9jJFZCkWnsIXzz0-15" value="性能数据" style="text;html=1;strokeColor=none;fillColor=none;align=center;verticalAlign=middle;whiteSpace=wrap;rounded=0;" vertex="1" parent="1">
          <mxGeometry x="248" y="140" width="66" height="20" as="geometry" />
        </mxCell>
        <mxCell id="VUWlF9jJFZCkWnsIXzz0-17" value="" style="endArrow=classic;html=1;entryX=0.558;entryY=0.983;entryDx=0;entryDy=0;entryPerimeter=0;exitX=0.25;exitY=0;exitDx=0;exitDy=0;" edge="1" parent="1" source="VUWlF9jJFZCkWnsIXzz0-12" target="VUWlF9jJFZCkWnsIXzz0-13">
          <mxGeometry width="50" height="50" relative="1" as="geometry">
            <mxPoint x="360" y="340" as="sourcePoint" />
            <mxPoint x="310" y="290" as="targetPoint" />
          </mxGeometry>
        </mxCell>
        <mxCell id="VUWlF9jJFZCkWnsIXzz0-18" value="" style="endArrow=classic;html=1;entryX=0.5;entryY=1;entryDx=0;entryDy=0;exitX=0.75;exitY=0;exitDx=0;exitDy=0;" edge="1" parent="1" source="VUWlF9jJFZCkWnsIXzz0-12" target="VUWlF9jJFZCkWnsIXzz0-4">
          <mxGeometry width="50" height="50" relative="1" as="geometry">
            <mxPoint x="380" y="360" as="sourcePoint" />
            <mxPoint x="316.96000000000004" y="288.98" as="targetPoint" />
          </mxGeometry>
        </mxCell>
        <mxCell id="VUWlF9jJFZCkWnsIXzz0-19" value="" style="endArrow=classic;html=1;entryX=0.5;entryY=0;entryDx=0;entryDy=0;exitX=0.5;exitY=1;exitDx=0;exitDy=0;" edge="1" parent="1" source="VUWlF9jJFZCkWnsIXzz0-12" target="VUWlF9jJFZCkWnsIXzz0-1">
          <mxGeometry width="50" height="50" relative="1" as="geometry">
            <mxPoint x="390" y="390" as="sourcePoint" />
            <mxPoint x="440" y="340" as="targetPoint" />
          </mxGeometry>
        </mxCell>
        <mxCell id="VUWlF9jJFZCkWnsIXzz0-21" value="500节点" style="text;html=1;strokeColor=none;fillColor=none;align=center;verticalAlign=middle;whiteSpace=wrap;rounded=0;" vertex="1" parent="1">
          <mxGeometry x="248" y="550" width="66" height="20" as="geometry" />
        </mxCell>
        <mxCell id="VUWlF9jJFZCkWnsIXzz0-22" value="2000节点" style="text;html=1;strokeColor=none;fillColor=none;align=center;verticalAlign=middle;whiteSpace=wrap;rounded=0;" vertex="1" parent="1">
          <mxGeometry x="490" y="550" width="66" height="20" as="geometry" />
        </mxCell>
        <mxCell id="VUWlF9jJFZCkWnsIXzz0-23" value="流处理引擎&lt;br&gt;kfaka stream" style="rounded=1;whiteSpace=wrap;html=1;" vertex="1" parent="1">
          <mxGeometry x="436" y="350" width="120" height="60" as="geometry" />
        </mxCell>
        <mxCell id="VUWlF9jJFZCkWnsIXzz0-24" value="流处理引擎&lt;br&gt;kfaka stream" style="rounded=1;whiteSpace=wrap;html=1;" vertex="1" parent="1">
          <mxGeometry x="230" y="350" width="120" height="60" as="geometry" />
        </mxCell>
        <mxCell id="VUWlF9jJFZCkWnsIXzz0-28" value="kafka" style="rounded=1;whiteSpace=wrap;html=1;" vertex="1" parent="1">
          <mxGeometry x="160" y="250" width="120" height="60" as="geometry" />
        </mxCell>
        <mxCell id="VUWlF9jJFZCkWnsIXzz0-30" value="cassandra" style="rounded=1;whiteSpace=wrap;html=1;" vertex="1" parent="1">
          <mxGeometry x="510" y="640" width="120" height="60" as="geometry" />
        </mxCell>
        <mxCell id="VUWlF9jJFZCkWnsIXzz0-32" value="" style="endArrow=classic;html=1;exitX=0.008;exitY=0.535;exitDx=0;exitDy=0;exitPerimeter=0;" edge="1" parent="1" source="VUWlF9jJFZCkWnsIXzz0-8" target="VUWlF9jJFZCkWnsIXzz0-23">
          <mxGeometry width="50" height="50" relative="1" as="geometry">
            <mxPoint x="610" y="410" as="sourcePoint" />
            <mxPoint x="660" y="360" as="targetPoint" />
          </mxGeometry>
        </mxCell>
        <mxCell id="VUWlF9jJFZCkWnsIXzz0-33" value="历史性能查询&lt;br&gt;&lt;br&gt;&amp;nbsp;非归并数据业务报表&lt;br&gt;&lt;br&gt;性能异常分析" style="rounded=1;whiteSpace=wrap;html=1;" vertex="1" parent="1">
          <mxGeometry x="10" y="200" width="120" height="470" as="geometry" />
        </mxCell>
        <mxCell id="VUWlF9jJFZCkWnsIXzz0-34" value="性能数据整合标签" style="text;html=1;strokeColor=none;fillColor=none;align=center;verticalAlign=middle;whiteSpace=wrap;rounded=0;" vertex="1" parent="1">
          <mxGeometry x="330" y="310" width="130" height="20" as="geometry" />
        </mxCell>
      </root>
    </mxGraphModel>
  </diagram>
</mxfile>
